# xmcd CD database file
#
# Track frame offsets:
#	150
#	13587
#	33965
#	57667
#	75375
#
# Disc length: 1269 seconds
#
# Revision: 0
# Processed by: cddbd v1.5.1PL0 Copyright (c) Steve Scherf et al.
# Submitted via: CDex 1.51
#
DISCID=3204f305
DTITLE=Tom・Cat - Fence
DYEAR=1986
DGENRE=JPop
TTITLE0=SO What? (We Are Tom・Cat)
TTITLE1=ひとりぼっちの反乱軍
TTITLE2=京葉レトロライン
TTITLE3=Fence
TTITLE4=Birthday Song
EXTD=YEAR: 1986
EXTT0=
EXTT1=
EXTT2=
EXTT3=
EXTT4=
PLAYORDER=
